<svg xmlns="http://www.w3.org/2000/svg" xmlns:xlink="http://www.w3.org/1999/xlink" width="40" height="30" viewBox="0 0 40 30">
  <defs>
    <clipPath id="clip-path">
      <path id="パス_3" data-name="パス 3" d="M0-47.016c13.059,3.776,25.786,4.2,39.68,0l-.343,8.51a6.806,6.806,0,0,0-4.216,6.312,6.811,6.811,0,0,0,3.717,6.084L39.349-18C26.636-20.488,14.332-20.059.331-18l.512-8.108a6.808,6.808,0,0,0,3.719-6.087A6.808,6.808,0,0,0,.343-38.506L0-47.016" transform="translate(0 47.016)" fill="none"/>
    </clipPath>
    <clipPath id="clip-path-2">
      <path id="パス_2" data-name="パス 2" d="M.06-18.037H39.7V-47.016H.06Z" transform="translate(-0.06 47.016)" fill="none"/>
    </clipPath>
    <linearGradient id="linear-gradient" x1="-0.091" y1="0.497" x2="0.807" y2="0.497" gradientUnits="objectBoundingBox">
      <stop offset="0" stop-color="#a12d20"/>
      <stop offset="0.1" stop-color="#a62e20"/>
      <stop offset="0.2" stop-color="#ac2f20"/>
      <stop offset="0.3" stop-color="#b13120"/>
      <stop offset="0.4" stop-color="#b63220"/>
      <stop offset="0.5" stop-color="#bd3320"/>
      <stop offset="0.6" stop-color="#c3341f"/>
      <stop offset="0.7" stop-color="#c9361f"/>
      <stop offset="0.8" stop-color="#cd371e"/>
      <stop offset="0.9" stop-color="#d4381e"/>
      <stop offset="1" stop-color="#d8391d"/>
    </linearGradient>
    <clipPath id="clip-path-3">
      <path id="パス_5" data-name="パス 5" d="M0-18H40V-48H0Z" transform="translate(0 48)" fill="none"/>
    </clipPath>
  </defs>
  <g id="グループ_5" data-name="グループ 5" transform="translate(0 48)">
    <g id="グループ_3" data-name="グループ 3" transform="translate(0 -47.016)" clip-path="url(#clip-path)">
      <g id="グループ_2" data-name="グループ 2" transform="translate(0.037)" clip-path="url(#clip-path-2)">
        <g id="グループ_1" data-name="グループ 1" transform="translate(-0.037 29.016) rotate(-90)">
          <path id="パス_1" data-name="パス 1" d="M29.623,0V39.879H0V0Z" transform="translate(0 0)" fill="url(#linear-gradient)"/>
        </g>
      </g>
    </g>
    <g id="グループ_4" data-name="グループ 4" transform="translate(0 -48)" clip-path="url(#clip-path-3)">
      <path id="パス_4" data-name="パス 4" d="M30.791-24.977a2.7,2.7,0,0,1-.676,1.1,2.493,2.493,0,0,1-.962.6,2.708,2.708,0,0,1-1.074.142,2.466,2.466,0,0,1-1-.283,1.981,1.981,0,0,1-.738-.659,1.813,1.813,0,0,1-.288-1v-5.29a1.7,1.7,0,0,1,.293-.969,2.008,2.008,0,0,1,.747-.632,2.753,2.753,0,0,1,1.006-.276,2.886,2.886,0,0,1,1.069.125,2.351,2.351,0,0,1,.928.547,2.313,2.313,0,0,1,.6,1.011l3.782-1.2a5.979,5.979,0,0,0-1-2.166,5.483,5.483,0,0,0-1.547-1.4,6.585,6.585,0,0,0-1.831-.75,7.244,7.244,0,0,0-1.843-.227,8.159,8.159,0,0,0-1.946.237,6.98,6.98,0,0,0-1.8.716,5.758,5.758,0,0,0-1.486,1.2,5.23,5.23,0,0,0-1.006,1.67,5.972,5.972,0,0,0-.375,2.153v5.293a5.972,5.972,0,0,0,.375,2.153,5.183,5.183,0,0,0,1.006,1.66,5.766,5.766,0,0,0,1.486,1.188,7.25,7.25,0,0,0,1.794.708,8.154,8.154,0,0,0,1.946.232,7.226,7.226,0,0,0,1.833-.239,6.569,6.569,0,0,0,1.826-.771,6.25,6.25,0,0,0,1.6-1.414,6.922,6.922,0,0,0,1.156-2.152l-3.875-1.3" transform="translate(-8.116 43.615)" fill="#fff"/>
    </g>
  </g>
</svg>
