<svg xmlns="http://www.w3.org/2000/svg" width="30.759" height="30" viewBox="0 0 30.759 30">
  <path id="パス_21" data-name="パス 21" d="M151.7-444.545a15.38,15.38,0,0,0-15.378,15.38,15.382,15.382,0,0,0,10.518,14.593c.769.142,1.05-.333,1.05-.741,0-.364-.013-1.332-.021-2.615-4.278.929-5.181-2.062-5.181-2.062a4.073,4.073,0,0,0-1.708-2.25c-1.4-.954.106-.935.106-.935a3.229,3.229,0,0,1,2.356,1.585,3.275,3.275,0,0,0,4.476,1.277,3.287,3.287,0,0,1,.976-2.055c-3.415-.388-7.006-1.708-7.006-7.6a5.944,5.944,0,0,1,1.583-4.127,5.526,5.526,0,0,1,.151-4.07s1.291-.414,4.229,1.577a14.731,14.731,0,0,1,3.85-.518,14.747,14.747,0,0,1,3.85.518c2.936-1.99,4.225-1.577,4.225-1.577a5.527,5.527,0,0,1,.154,4.07,5.934,5.934,0,0,1,1.58,4.127c0,5.908-3.6,7.209-7.022,7.589a3.674,3.674,0,0,1,1.043,2.848c0,2.055-.019,3.714-.019,4.218,0,.412.278.89,1.057.74a15.385,15.385,0,0,0,10.509-14.592,15.381,15.381,0,0,0-15.381-15.38" transform="translate(-136.32 444.545)" fill="#181717" fill-rule="evenodd"/>
</svg>
