<svg xmlns="http://www.w3.org/2000/svg" width="36.92" height="30" viewBox="0 0 36.92 30">
  <path id="logo_twitter" d="M86.611,128.45c13.932,0,21.553-11.543,21.553-21.553,0-.328,0-.654-.022-.979A15.412,15.412,0,0,0,111.92,102a15.12,15.12,0,0,1-4.351,1.192A7.6,7.6,0,0,0,110.9,99a15.179,15.179,0,0,1-4.81,1.839,7.582,7.582,0,0,0-12.909,6.909A21.505,21.505,0,0,1,77.57,99.833a7.581,7.581,0,0,0,2.345,10.112A7.518,7.518,0,0,1,76.477,109v.1a7.578,7.578,0,0,0,6.077,7.425,7.563,7.563,0,0,1-3.42.13,7.583,7.583,0,0,0,7.077,5.26,15.2,15.2,0,0,1-9.407,3.249,15.419,15.419,0,0,1-1.8-.109,21.445,21.445,0,0,0,11.611,3.4" transform="translate(-75 -98.45)" fill="#1da1f2"/>
</svg>
