<svg xmlns="http://www.w3.org/2000/svg" width="123.92" height="30" viewBox="0 0 123.92 30">
  <path id="logo_commpass" d="M4.52,0A2.791,2.791,0,0,1,2.44-.86,2.844,2.844,0,0,1,1.6-2.92V-17.08a2.844,2.844,0,0,1,.84-2.06A2.791,2.791,0,0,1,4.52-20H9.96a2.81,2.81,0,0,1,2.06.86,2.81,2.81,0,0,1,.86,2.06v4.36H9.12V-14.8a1.357,1.357,0,0,0-.44-1.02,1.456,1.456,0,0,0-1.04-.42H6.8a1.389,1.389,0,0,0-1.02.42,1.389,1.389,0,0,0-.42,1.02v9.6a1.389,1.389,0,0,0,.42,1.02,1.389,1.389,0,0,0,1.02.42h.84a1.456,1.456,0,0,0,1.04-.42A1.357,1.357,0,0,0,9.12-5.2V-7.28h3.76v4.36a2.81,2.81,0,0,1-.86,2.06A2.81,2.81,0,0,1,9.96,0Zm13.6,0a2.791,2.791,0,0,1-2.08-.86,2.844,2.844,0,0,1-.84-2.06V-17.08a2.844,2.844,0,0,1,.84-2.06A2.791,2.791,0,0,1,18.12-20h5.44a2.745,2.745,0,0,1,2.04.86,2.844,2.844,0,0,1,.84,2.06V-2.92A2.844,2.844,0,0,1,25.6-.86,2.745,2.745,0,0,1,23.56,0ZM20.4-3.76h.84a1.456,1.456,0,0,0,1.04-.42,1.357,1.357,0,0,0,.44-1.02v-9.6a1.357,1.357,0,0,0-.44-1.02,1.456,1.456,0,0,0-1.04-.42H20.4a1.389,1.389,0,0,0-1.02.42,1.389,1.389,0,0,0-.42,1.02v9.6a1.389,1.389,0,0,0,.42,1.02A1.389,1.389,0,0,0,20.4-3.76ZM29.56,0V-20H45.44a2.745,2.745,0,0,1,2.04.86,2.844,2.844,0,0,1,.84,2.06V0H44.6V-14.8a1.358,1.358,0,0,0-.44-1.02,1.456,1.456,0,0,0-1.04-.42H40.84V0H37.08V-14.8a1.358,1.358,0,0,0-.44-1.02,1.456,1.456,0,0,0-1.04-.42H33.32V0Zm21.6,0V-20H67.04a2.745,2.745,0,0,1,2.04.86,2.844,2.844,0,0,1,.84,2.06V0H66.2V-14.8a1.358,1.358,0,0,0-.44-1.02,1.456,1.456,0,0,0-1.04-.42H62.44V0H58.68V-14.8a1.357,1.357,0,0,0-.44-1.02,1.456,1.456,0,0,0-1.04-.42H54.92V0ZM72.88,10V-20h8.36a2.825,2.825,0,0,1,2.08.84,2.825,2.825,0,0,1,.84,2.08V-2.92a2.825,2.825,0,0,1-.84,2.08A2.825,2.825,0,0,1,81.24,0h-4.6V10ZM76.64-3.76h2.32a1.378,1.378,0,0,0,1-.44,1.378,1.378,0,0,0,.44-1v-9.56a1.387,1.387,0,0,0-.44-1.08,1.446,1.446,0,0,0-1-.4H76.64ZM89.48,0a2.844,2.844,0,0,1-2.06-.84,2.791,2.791,0,0,1-.86-2.08V-8.96a2.81,2.81,0,0,1,.86-2.06,2.81,2.81,0,0,1,2.06-.86H92.6a1.437,1.437,0,0,0,1.06-.42,1.389,1.389,0,0,0,.42-1.02V-14.8a1.389,1.389,0,0,0-.42-1.02,1.437,1.437,0,0,0-1.06-.42H88.28L89.12-20h5.8a2.81,2.81,0,0,1,2.06.86,2.81,2.81,0,0,1,.86,2.06V0Zm2.28-3.76h2.32V-8.12H91.76a1.389,1.389,0,0,0-1.02.42,1.389,1.389,0,0,0-.42,1.02V-5.2a1.389,1.389,0,0,0,.42,1.02A1.389,1.389,0,0,0,91.76-3.76ZM103.12,0a2.745,2.745,0,0,1-2.04-.86,2.844,2.844,0,0,1-.84-2.06V-6.24h3.72V-5.2a1.357,1.357,0,0,0,.44,1.02,1.456,1.456,0,0,0,1.04.42h.84a1.389,1.389,0,0,0,1.02-.42,1.389,1.389,0,0,0,.42-1.02V-6.68a1.389,1.389,0,0,0-.42-1.02,1.389,1.389,0,0,0-1.02-.42h-3.16a2.745,2.745,0,0,1-2.04-.86,2.844,2.844,0,0,1-.84-2.06v-6.04a2.844,2.844,0,0,1,.84-2.06,2.745,2.745,0,0,1,2.04-.86h5.48a2.745,2.745,0,0,1,2.04.86,2.844,2.844,0,0,1,.84,2.06v3.32h-3.76V-14.8a1.389,1.389,0,0,0-.42-1.02,1.389,1.389,0,0,0-1.02-.42h-.84a1.456,1.456,0,0,0-1.04.42,1.357,1.357,0,0,0-.44,1.02v1.48a1.357,1.357,0,0,0,.44,1.02,1.456,1.456,0,0,0,1.04.42h3.16a2.745,2.745,0,0,1,2.04.86,2.844,2.844,0,0,1,.84,2.06v6.2a2.768,2.768,0,0,1-.88,1.94,2.764,2.764,0,0,1-2,.82Zm14.04,0a2.745,2.745,0,0,1-2.04-.86,2.844,2.844,0,0,1-.84-2.06V-6.24H118V-5.2a1.357,1.357,0,0,0,.44,1.02,1.456,1.456,0,0,0,1.04.42h.84a1.389,1.389,0,0,0,1.02-.42,1.389,1.389,0,0,0,.42-1.02V-6.68a1.389,1.389,0,0,0-.42-1.02,1.389,1.389,0,0,0-1.02-.42h-3.16a2.745,2.745,0,0,1-2.04-.86,2.844,2.844,0,0,1-.84-2.06v-6.04a2.844,2.844,0,0,1,.84-2.06,2.745,2.745,0,0,1,2.04-.86h5.48a2.745,2.745,0,0,1,2.04.86,2.844,2.844,0,0,1,.84,2.06v3.32h-3.76V-14.8a1.389,1.389,0,0,0-.42-1.02,1.389,1.389,0,0,0-1.02-.42h-.84a1.456,1.456,0,0,0-1.04.42A1.357,1.357,0,0,0,118-14.8v1.48a1.357,1.357,0,0,0,.44,1.02,1.456,1.456,0,0,0,1.04.42h3.16a2.745,2.745,0,0,1,2.04.86,2.844,2.844,0,0,1,.84,2.06v6.2a2.768,2.768,0,0,1-.88,1.94,2.764,2.764,0,0,1-2,.82Z" transform="translate(-1.6 20)" fill="#a82400"/>
</svg>
